<svg width="15" height="13" viewBox="0 0 15 13" fill="none" xmlns="http://www.w3.org/2000/svg">
<path fill-rule="evenodd" clip-rule="evenodd" d="M10 2.5005C10 2.22478 10.08 2 10.1786 2H14.8214C14.9196 2 15 2.22478 15 2.5005C15 2.77622 14.9196 3 14.8214 3H10.1786C10.08 3 10 2.77622 10 2.5005Z" fill="#727272"/>
<path fill-rule="evenodd" clip-rule="evenodd" d="M12.4995 -2.18775e-08C12.7752 -9.82524e-09 13 0.08 13 0.178571L13 4.82143C13 4.91964 12.7752 5 12.4995 5C12.2238 5 12 4.91964 12 4.82143L12 0.178571C12 0.08 12.2238 -3.39298e-08 12.4995 -2.18775e-08Z" fill="#727272"/>
<path d="M12.1016 13H7.48438V12.4453C7.89062 12.4193 8.22656 12.3672 8.49219 12.2891C8.76302 12.2109 8.89844 12.1146 8.89844 12C8.89844 11.9531 8.89323 11.8958 8.88281 11.8281C8.8724 11.7604 8.85677 11.7005 8.83594 11.6484L7.91406 9.16406H4.03125C3.88542 9.52865 3.76562 9.84635 3.67188 10.1172C3.58333 10.388 3.5026 10.638 3.42969 10.8672C3.36198 11.0911 3.3151 11.2734 3.28906 11.4141C3.26302 11.5547 3.25 11.6693 3.25 11.7578C3.25 11.9661 3.41406 12.1276 3.74219 12.2422C4.07031 12.3568 4.4401 12.4245 4.85156 12.4453V13H0.679688V12.4453C0.815104 12.4349 0.984375 12.4062 1.1875 12.3594C1.39062 12.3073 1.55729 12.2396 1.6875 12.1562C1.89583 12.0156 2.05729 11.8698 2.17188 11.7188C2.28646 11.5625 2.39844 11.349 2.50781 11.0781C3.0651 9.6875 3.67969 8.125 4.35156 6.39062C5.02344 4.65625 5.6224 3.11198 6.14844 1.75781H6.77344L10.4688 11.3203C10.5469 11.5234 10.6354 11.6875 10.7344 11.8125C10.8333 11.9375 10.9714 12.0599 11.1484 12.1797C11.2682 12.2526 11.4245 12.3151 11.6172 12.3672C11.8099 12.4141 11.9714 12.4401 12.1016 12.4453V13ZM7.63281 8.46875L5.95312 4.17188L4.30469 8.46875H7.63281Z" fill="#727272"/>
</svg>
